subject_07
version=1
nRows=423
nColumns=3
inDegrees=yes
endheader
time	r_shoulder_elev	r_elbow_flex
94.2800	17.928737	78.762114
94.2900	17.928737	79.658291
94.3000	17.928737	80.749448
94.3100	17.928737	81.866977
94.3200	17.928737	82.846710
94.3300	17.928737	83.599111
94.3400	17.928737	84.143469
94.3500	17.928737	84.590451
94.3600	17.928737	85.081595
94.3700	17.928737	85.715088
94.3800	17.928737	86.494345
94.3900	17.928737	87.325579
94.4000	17.928737	88.067085
94.4100	17.928737	88.607276
94.4200	17.928737	88.932968
94.4300	17.928737	89.152040
94.4400	17.928737	89.455006
94.4500	17.928737	90.029175
94.4600	17.928737	90.963458
94.4700	17.928737	92.189419
94.4800	17.928737	93.490438
94.4900	17.928737	94.581099
94.5000	17.928737	95.226300
94.5100	17.928737	95.349080
94.5200	17.928737	95.077956
94.5300	17.928737	94.708751
94.5400	17.928737	94.592588
94.5500	17.928737	94.994722
94.5600	17.928737	95.983373
94.5700	17.928737	97.396629
94.5800	17.928737	98.903169
94.5900	17.928737	100.132779
94.6000	17.928737	100.822799
94.6100	17.928737	100.919778
94.6200	17.928737	100.594857
94.6300	17.928737	100.168225
94.6400	17.928737	99.976320
94.6500	17.928737	100.238633
94.6600	17.928737	100.979186
94.6700	17.928737	102.032456
94.6800	17.928737	103.126313
94.6900	17.928737	104.002096
94.7000	17.928737	104.518350
94.7100	17.928737	104.695150
94.7200	17.928737	104.684801
94.7300	17.928737	104.688183
94.7400	17.928737	104.858956
94.7500	17.928737	105.240243
94.7600	17.928737	105.760252
94.7700	17.928737	106.283840
94.7800	17.928737	106.690634
94.7900	17.928737	106.939136
94.8000	17.928737	107.085189
94.8100	17.928737	107.247122
94.8200	17.928737	107.536995
94.8300	17.928737	107.994303
94.8400	17.928737	108.557134
94.8500	17.928737	109.086979
94.8600	17.928737	109.436331
94.8700	17.928737	109.526172
94.8800	17.928737	109.394297
94.8900	17.928737	109.188400
94.9000	17.928737	109.103996
94.9100	17.928737	109.294255
94.9200	17.928737	109.793685
94.9300	17.928737	110.492886
94.9400	17.928737	111.179073
94.9500	17.928737	111.626834
94.9600	17.928737	111.699610
94.9700	17.928737	111.415970
94.9800	17.928737	110.949190
94.9900	17.928737	110.557904
95.0000	17.928737	110.476433
95.0100	17.928737	110.812119
95.0200	17.928737	111.494880
95.0300	17.928737	112.302031
95.0400	17.928737	112.948923
95.0500	17.928737	113.207340
95.0600	17.928737	113.001475
95.0700	17.928737	112.440854
95.0800	17.928737	111.776519
95.0900	17.928737	111.299235
95.1000	17.928737	111.222558
95.1100	17.928737	111.599017
95.1200	17.928737	112.302820
95.1300	17.928737	113.084059
95.1400	17.928737	113.669993
95.1500	17.928737	113.870875
95.1600	17.928737	113.648060
95.1700	17.928737	113.119680
95.1800	17.928737	112.505742
95.1900	17.928737	112.038557
95.2000	17.928737	111.876136
95.2100	17.928737	112.051792
95.2200	17.928737	112.475778
95.2300	17.928737	112.982647
95.2400	17.928737	113.400771
95.2500	17.928737	113.614595
95.2600	17.928737	113.596723
95.2700	17.928737	113.402195
95.2800	17.928737	113.133616
95.2900	17.928737	112.895179
95.3000	17.928737	112.755541
95.3100	17.928737	112.732242
95.3200	17.928737	112.799229
95.3300	17.928737	112.909312
95.3400	17.928737	113.018900
95.3500	17.928737	113.104187
95.3600	17.928737	113.163984
95.3700	17.928737	113.211286
95.3800	17.928737	113.260158
95.3900	17.928737	113.315108
95.4000	17.928737	113.367472
95.4100	17.928737	113.399299
95.4200	17.928737	113.391962
95.4300	17.928737	113.335384
95.4400	17.928737	113.234385
95.4500	17.928737	113.110197
95.4600	17.928737	112.996646
95.4700	17.928737	112.931560
95.4800	17.928737	112.946156
95.4900	17.928737	113.053449
95.5000	17.928737	113.239203
95.5100	17.928737	113.459551
95.5200	17.928737	113.648501
95.5300	17.928737	113.735783
95.5400	17.928737	113.671157
95.5500	17.928737	113.447020
95.5600	17.928737	113.109341
95.5700	17.928737	112.749368
95.5800	17.928737	112.475322
95.5900	17.928737	112.372143
95.6000	17.928737	112.464416
95.6100	17.928737	112.699054
95.6200	17.928737	112.958252
95.6300	17.928737	113.101337
95.6400	17.928737	113.020915
95.6500	17.928737	112.690414
95.6600	17.928737	112.181128
95.6700	17.928737	111.638147
95.6800	17.928737	111.221889
95.6900	17.928737	111.038207
95.7000	17.928737	111.087368
95.7100	17.928737	111.256480
95.7200	17.928737	111.362416
95.7300	17.928737	111.229986
95.7400	17.928737	110.772880
95.7500	17.928737	110.040934
95.7600	17.928737	109.209620
95.7700	17.928737	108.511770
95.7800	17.928737	108.137566
95.7900	17.928737	108.144950
95.8000	17.928737	108.421085
95.8100	17.928737	108.715730
95.8200	17.928737	108.737173
95.8300	17.928737	108.273416
95.8400	17.928737	107.288117
95.8500	17.928737	105.948859
95.8600	17.928737	104.572068
95.8700	17.928737	103.503540
95.8800	17.928737	102.981350
95.8900	17.928737	103.036848
95.9000	17.928737	103.475172
95.9100	17.928737	103.944835
95.9200	17.928737	104.069742
95.9300	17.928737	103.591529
95.9400	17.928737	102.466125
95.9500	17.928737	100.877341
95.9600	17.928737	99.164037
95.9700	17.928737	97.691647
95.9800	17.928737	96.719586
95.9900	17.928737	96.315163
96.0000	17.928737	96.343564
96.0100	17.928737	96.531840
96.0200	17.928737	96.576367
96.0300	17.928737	96.249318
96.0400	17.928737	95.464860
96.0500	17.928737	94.286188
96.0600	17.928737	92.880018
96.0700	17.928737	91.444561
96.0800	17.928737	90.142792
96.0900	17.928737	89.064310
96.1000	17.928737	88.222220
96.1100	17.928737	87.575063
96.1200	17.928737	87.055667
96.1300	17.928737	86.591328
96.1400	17.928737	86.110099
96.1500	17.928737	85.539176
96.1600	17.928737	84.806830
96.1700	17.928737	83.856131
96.1800	17.928737	82.668897
96.1900	17.928737	81.288091
96.2000	17.928737	79.822823
96.2100	17.928737	78.425501
96.2200	17.928737	77.243696
96.2300	17.928737	76.363599
96.2400	17.928737	75.769670
96.2500	17.928737	75.341346
96.2600	17.928737	74.892901
96.2700	17.928737	74.243135
96.2800	17.928737	73.286588
96.2900	17.928737	72.035248
96.3000	17.928737	70.611385
96.3100	17.928737	69.193519
96.3200	17.928737	67.939003
96.3300	17.928737	66.918003
96.3400	17.928737	66.088983
96.3500	17.928737	65.326833
96.3600	17.928737	64.489971
96.3700	17.928737	63.493907
96.3800	17.928737	62.355027
96.3900	17.928737	61.182127
96.4000	17.928737	60.118421
96.4100	17.928737	59.261559
96.4200	17.928737	58.601567
96.4300	17.928737	58.009988
96.4400	17.928737	57.290147
96.4500	17.928737	56.268862
96.4600	17.928737	54.888073
96.4700	17.928737	53.251565
96.4800	17.928737	51.599960
96.4900	17.928737	50.218976
96.5000	17.928737	49.317513
96.5100	17.928737	48.928610
96.5200	17.928737	48.879437
96.5300	17.928737	48.848232
96.5400	17.928737	48.488397
96.5500	17.928737	47.569538
96.5600	17.928737	46.075827
96.5700	17.928737	44.218642
96.5800	17.928737	42.356158
96.5900	17.928737	40.852158
96.6000	17.928737	39.932424
96.6100	17.928737	39.598199
96.6200	17.928737	39.631840
96.6300	17.928737	39.690506
96.6400	17.928737	39.446818
96.6500	17.928737	38.716759
96.6600	17.928737	37.522505
96.6700	17.928737	36.067460
96.6800	17.928737	34.639068
96.6900	17.928737	33.484929
96.7000	17.928737	32.716573
96.7100	17.928737	32.279847
96.7200	17.928737	31.999180
96.7300	17.928737	31.669863
96.7400	17.928737	31.152845
96.7500	17.928737	30.428768
96.7600	17.928737	29.589816
96.7700	17.928737	28.778592
96.7800	17.928737	28.107815
96.7900	17.928737	27.601972
96.8000	17.928737	27.189197
96.8100	17.928737	26.745547
96.8200	17.928737	26.167354
96.8300	17.928737	25.433442
96.8400	17.928737	24.624261
96.8500	17.928737	23.886714
96.8600	17.928737	23.360919
96.8700	17.928737	23.104965
96.8800	17.928737	23.055989
96.8900	17.928737	23.049348
96.9000	17.928737	22.889885
96.9100	17.928737	22.443512
96.9200	17.928737	21.706054
96.9300	17.928737	20.815161
96.9400	17.928737	19.996578
96.9500	17.928737	19.466478
96.9600	17.928737	19.332844
96.9700	17.928737	19.540985
96.9800	17.928737	19.889643
96.9900	17.928737	20.113080
97.0000	17.928737	19.994711
97.0100	17.928737	19.462978
97.0200	17.928737	18.626955
97.0300	17.928737	17.734918
97.0400	17.928737	17.072497
97.0500	17.928737	16.843319
97.0600	17.928737	17.082827
97.0700	17.928737	17.641796
97.0800	17.928737	18.246330
97.0900	17.928737	18.608824
97.1000	17.928737	18.543371
97.1100	17.928737	18.038164
97.1200	17.928737	17.256376
97.1300	17.928737	16.467357
97.1400	17.928737	15.938351
97.1500	17.928737	15.831757
97.1600	17.928737	16.148444
97.1700	17.928737	16.736854
97.1800	17.928737	17.360005
97.1900	17.928737	17.789960
97.2000	17.928737	17.890816
97.2100	17.928737	17.659127
97.2200	17.928737	17.210434
97.2300	17.928737	16.722938
97.2400	17.928737	16.364980
97.2500	17.928737	16.236140
97.2600	17.928737	16.342539
97.2700	17.928737	16.610615
97.2800	17.928737	16.928038
97.2900	17.928737	17.191540
97.3000	17.928737	17.340907
97.3100	17.928737	17.369584
97.3200	17.928737	17.312512
97.3300	17.928737	17.221031
97.3400	17.928737	17.138094
97.3500	17.928737	17.084027
97.3600	17.928737	17.056299
97.3700	17.928737	17.039891
97.3800	17.928737	17.020988
97.3900	17.928737	16.996828
97.4000	17.928737	16.977857
97.4100	17.928737	16.982472
97.4200	17.928737	17.027751
97.4300	17.928737	17.120454
97.4400	17.928737	17.251651
97.4500	17.928737	17.396543
97.4600	17.928737	17.519444
97.4700	17.928737	17.582855
97.4800	17.928737	17.558926
97.4900	17.928737	17.440833
97.5000	17.928737	17.250040
97.5100	17.928737	17.036273
97.5200	17.928737	16.867502
97.5300	17.928737	16.810310
97.5400	17.928737	16.905501
97.5500	17.928737	17.147631
97.5600	17.928737	17.478165
97.5700	17.928737	17.798536
97.5800	17.928737	18.002027
97.5900	17.928737	18.014613
97.6000	17.928737	17.828841
97.6100	17.928737	17.514912
97.6200	17.928737	17.200671
97.6300	17.928737	17.024874
97.6400	17.928737	17.080692
97.6500	17.928737	17.373087
97.6600	17.928737	17.810327
97.6700	17.928737	18.236867
97.6800	17.928737	18.496973
97.6900	17.928737	18.503497
97.7000	17.928737	18.281436
97.7100	17.928737	17.964535
97.7200	17.928737	17.742530
97.7300	17.928737	17.778818
97.7400	17.928737	18.133398
97.7500	17.928737	18.726404
97.7600	17.928737	19.362041
97.7700	17.928737	19.807041
97.7800	17.928737	19.892799
97.7900	17.928737	19.597421
97.8000	17.928737	19.069668
97.8100	17.928737	18.579814
97.8200	17.928737	18.413616
97.8300	17.928737	18.751460
97.8400	17.928737	19.583719
97.8500	17.928737	20.700612
97.8600	17.928737	21.764931
97.8700	17.928737	22.441295
97.8800	17.928737	22.530753
97.8900	17.928737	22.055596
97.9000	17.928737	21.258420
97.9100	17.928737	20.513963
97.9200	17.928737	20.187855
97.9300	17.928737	20.498069
97.9400	17.928737	21.433670
97.9500	17.928737	22.761897
97.9600	17.928737	24.118911
97.9700	17.928737	25.146597
97.9800	17.928737	25.621122
97.9900	17.928737	25.524796
98.0000	17.928737	25.037723
98.0100	17.928737	24.458507
98.0200	17.928737	24.090004
98.0300	17.928737	24.136212
98.0400	17.928737	24.647128
98.0500	17.928737	25.525353
98.0600	17.928737	26.582388
98.0700	17.928737	27.615155
98.0800	17.928737	28.470575
98.0900	17.928737	29.077229
98.1000	17.928737	29.441267
98.1100	17.928737	29.619477
98.1200	17.928737	29.688797
98.1300	17.928737	29.726955
98.1400	17.928737	29.807580
98.1500	17.928737	30.002163
98.1600	17.928737	30.377106
98.1700	17.928737	30.978801
98.1800	17.928737	31.810110
98.1900	17.928737	32.811215
98.2000	17.928737	33.860267
98.2100	17.928737	34.802157
98.2200	17.928737	35.499857
98.2300	17.928737	35.889251
98.2400	17.928737	36.012631
98.2500	17.928737	36.012299
98.2600	17.928737	36.082127
98.2700	17.928737	36.394307
98.2800	17.928737	37.031494
98.2900	17.928737	37.954304
98.3000	17.928737	39.019720
98.3100	17.928737	40.043488
98.3200	17.928737	40.879264
98.3300	17.928737	41.478953
98.3400	17.928737	41.906733
98.3500	17.928737	42.300549
98.3600	17.928737	42.799656
98.3700	17.928737	43.473304
98.3800	17.928737	44.285745
98.3900	17.928737	45.115714
98.4000	17.928737	45.822147
98.4100	17.928737	46.324455
98.4200	17.928737	46.656852
98.4300	17.928737	46.966844
98.4400	17.928737	47.453874
98.4500	17.928737	48.273516
98.4600	17.928737	49.451484
98.4700	17.928737	50.850470
98.4800	17.928737	52.210917
98.4900	17.928737	53.253497
98.5000	17.928737	53.801312
